<svg xmlns="http://www.w3.org/2000/svg" width="144.487" height="30" viewBox="0 0 144.487 30">
  <g id="eisko-logo" transform="translate(-1942.299 -207.72)">
    <g id="Group_24" data-name="Group 24" transform="translate(1942.299 207.72)">
      <path id="Path_1" data-name="Path 1" d="M1942.3,237.247V208.193h17.922v5.071h-12.25v6.92H1958.2V225.3h-10.229v6.834h12.594v5.114Z" transform="translate(-1942.299 -207.72)" fill="#fff"/>
      <path id="Path_2" data-name="Path 2" d="M1964.264,237.247V208.193h5.674v29.054Z" transform="translate(-1942.299 -207.72)" fill="#fff"/>
      <path id="Path_3" data-name="Path 3" d="M1993.677,230.284c0,5.287-3.825,7.436-10.616,7.436-3.051,0-8.811-.43-8.811-.43v-5.329s5.114.515,8.209.515c4.685,0,5.545-1.16,5.545-3.18v-.645c0-1.418-.258-2.707-2.837-3.051l-4.728-.6c-3.7-.473-6.318-3.266-6.318-7.478v-2.493c0-5.029,3.826-7.307,10.1-7.307,2.451,0,6.361.344,8.037.473v5.5s-5.114-.558-7.865-.558c-3.524,0-4.6.9-4.6,2.836v.731c0,1.418.258,2.751,2.793,3.051l4.9.6a6.73,6.73,0,0,1,6.189,7.049Z" transform="translate(-1942.299 -207.72)" fill="#fff"/>
      <path id="Path_4" data-name="Path 4" d="M2012.424,237.247,2003.4,225.3h-.431v11.948H1997.3V208.193h5.673v11.991h.431l9.068-11.991h6.275L2008,222.591l10.96,14.656Z" transform="translate(-1942.299 -207.72)" fill="#fff"/>
      <path id="Path_5" data-name="Path 5" d="M2041.894,216.789v11.862c0,6.791-5.244,9.069-10.874,9.069s-10.874-2.278-10.874-9.069V216.789c0-6.791,5.286-9.069,10.874-9.069S2041.894,210,2041.894,216.789Zm-16.074,1.805v8.166c0,4.384,1.805,5.716,5.2,5.716s5.2-1.289,5.2-5.716v-8.166c0-4.384-1.805-5.673-5.2-5.673S2025.82,214.21,2025.82,218.594Z" transform="translate(-1942.299 -207.72)" fill="#fff"/>
    </g>
    <g id="Group_26" data-name="Group 26" transform="translate(2046.007 215.602)">
      <g id="Group_25" data-name="Group 25">
        <path id="Path_6" data-name="Path 6" d="M2055.772,229.562a1,1,0,0,1-1.38,0l-8.075-7.7a1,1,0,0,1-.034-1.414l2.522-2.644a1,1,0,0,1,1.414-.034l4.174,3.98a1,1,0,0,0,1.38,0l6.161-5.872a1,1,0,0,1,1.38,0l6.159,5.873a1,1,0,0,0,1.38,0l6.163-5.873a1,1,0,0,1,1.379,0l8.081,7.7a1,1,0,0,1,.034,1.413l-2.521,2.646a1,1,0,0,1-1.414.034l-4.18-3.983a1,1,0,0,0-1.379,0l-6.165,5.874a1,1,0,0,1-1.379,0l-6.159-5.873a1,1,0,0,0-1.38,0Z" transform="translate(-2046.007 -215.602)" fill="#ffda00"/>
      </g>
    </g>
  </g>
</svg>
