<svg width="70" height="24" viewBox="0 0 70 24" fill="none" xmlns="http://www.w3.org/2000/svg">
<g clip-path="url(#clip0_45_790)">
<path d="M0 12.0078L0 24.0156L6.56703 23.9845C13.9256 23.9612 13.424 24 14.7327 23.3631C15.2813 23.0991 15.532 22.9127 16.1511 22.2991C16.8094 21.6544 16.9505 21.4602 17.2953 20.769L17.6871 19.969L17.9927 20.4583C18.3924 21.1029 19.4973 22.2214 20.1478 22.6563C20.8766 23.1379 21.7464 23.5185 22.6398 23.7593C23.3294 23.9457 23.5175 23.9612 24.9594 23.9612C26.417 23.9612 26.5816 23.9457 27.3104 23.7515C29.5751 23.1457 31.3776 21.7321 32.3336 19.7903C32.4512 19.5495 32.5765 19.3476 32.6001 19.3476C32.6236 19.3476 32.7803 19.6194 32.9449 19.9457C33.4621 20.9321 34.3946 21.9884 35.3193 22.6175C36.2127 23.2311 37.6233 23.767 38.7831 23.9301C39.7392 24.0699 41.6278 23.9923 42.4584 23.7748C43.9239 23.3942 45.0053 22.8117 45.9849 21.8796C46.7372 21.1651 47.1839 20.5748 47.5992 19.7593C48.1635 18.633 48.5083 17.235 48.5083 16.0233V15.4563L48.9628 15.8214C49.5035 16.2641 50.5771 16.7845 51.4861 17.0408C51.8545 17.1495 52.7713 17.3593 53.5237 17.5146C55.2477 17.8719 55.8198 18.0427 56.2743 18.3224C56.6975 18.5942 56.8542 18.9049 56.7993 19.3864C56.5877 21.1884 52.9516 21.2894 50.0677 19.5806C49.7151 19.3631 49.4095 19.2078 49.386 19.2233C49.3703 19.2466 49.2371 19.5262 49.096 19.8525C48.7982 20.5282 48.3202 21.3437 47.9675 21.7864C47.8343 21.9495 47.7246 22.1204 47.7246 22.1515C47.7246 22.3068 49.2292 23.0913 50.0364 23.3709C51.3921 23.8292 52.5284 24.0078 54.0644 24.0078C56.5642 24.0078 58.5155 23.3321 59.6675 22.0583C60.3885 21.2583 60.7176 20.4816 60.7881 19.3787C60.9135 17.3515 60.0593 15.8913 58.2099 15.0059C57.246 14.5398 56.4937 14.3224 54.4797 13.9029C52.7243 13.5457 52.1993 13.367 51.8074 13.0097C51.5567 12.7923 51.5253 12.7146 51.5332 12.4039C51.5488 11.7826 52.0504 11.3088 52.9359 11.0758C53.3277 10.9748 54.0957 10.9593 57.8102 10.9593L62.2144 10.9593L62.2457 15.868C62.2692 20.2952 62.2849 20.8311 62.4103 21.2505C62.8413 22.6874 63.8209 23.5884 65.2785 23.8991C65.9524 24.0389 67.3865 24.0389 68.1388 23.8913C68.7893 23.767 69.7375 23.3787 69.9491 23.1457C70.0745 23.0059 70.0666 22.9204 69.6669 21.4991C69.4397 20.6835 69.2438 20 69.2359 19.9845C69.2281 19.969 69.0949 20.0311 68.9538 20.1165C68.4209 20.4194 67.5824 20.466 67.1044 20.2097C66.8771 20.0932 66.5793 19.6894 66.4618 19.3554C66.3991 19.169 66.3756 17.8563 66.3756 15.0292V10.9593H67.7862H69.1968V9.32818V7.69711H67.7862H66.3756L66.3599 5.7942L66.3364 3.89129L64.3067 5.78644L62.2771 7.68935L57.5281 7.72042C52.4657 7.75925 52.356 7.76702 51.1335 8.1709C49.3781 8.75343 48.1399 9.94178 47.7246 11.4563L47.5992 11.9146L47.2152 11.301C46.7294 10.5243 45.6636 9.46799 44.8956 8.9942C43.532 8.15537 42.0353 7.75925 40.2407 7.75149C36.7613 7.74372 34.1595 9.30488 32.6392 12.3185C32.6157 12.3728 32.5844 12.3728 32.5609 12.3185C32.0672 11.3398 31.7145 10.8505 30.9152 10.066C30.445 9.59226 29.8494 9.09517 29.6065 8.95537C27.9765 8.0078 26.0487 7.58838 24.1209 7.76702C22.0285 7.96119 20.3594 8.69906 19.035 10.0194C18.1024 10.9515 17.5225 11.8991 17.0837 13.2427L16.9034 13.7787L16.6292 13.4369C16.112 12.8078 15.5634 12.3495 14.9365 12.0389C14.5995 11.8758 14.2469 11.736 14.1528 11.736C14.0666 11.736 14.286 11.5961 14.6465 11.4253C15.9631 10.8039 16.9583 9.48352 17.452 7.68935C17.6636 6.92042 17.6479 5.28158 17.4128 4.48158C17.0915 3.38644 16.5978 2.5476 15.7907 1.7476C15.1872 1.14178 14.9678 0.986437 14.3409 0.683523C12.9695 0.0233288 13.3848 0.0543976 6.29275 0.0310955L0 2.86102e-05L0 12.0078ZM11.1514 4.1709C12.0448 4.47382 12.8206 5.5845 12.9068 6.69518C13.0008 7.94566 12.3582 9.13401 11.3317 9.6078L10.932 9.7942H7.7817L4.62357 9.7942V6.92042L4.62357 4.04663H7.70333C10.3207 4.04663 10.8458 4.06216 11.1514 4.1709ZM26.2838 11.5728C27.5455 12.0078 28.4153 13.002 28.815 14.4622C29.0031 15.1379 28.9952 16.6292 28.8072 17.3282C28.3448 18.9981 27.1145 20.1476 25.5472 20.3495C23.7918 20.5826 22.3028 19.8059 21.5192 18.2525C21.1117 17.4369 20.9706 16.7146 21.0255 15.5884C21.0803 14.1593 21.4878 13.1884 22.3498 12.3573C22.7338 11.9923 23.6115 11.534 24.1366 11.4253C24.6695 11.3165 25.7509 11.3942 26.2838 11.5728ZM41.087 11.4641C42.5446 11.767 43.7045 12.9631 44.0806 14.5398C44.253 15.2622 44.2373 16.5437 44.0414 17.2816C43.4929 19.4253 41.7923 20.6214 39.6608 20.3573C38.1013 20.1631 36.8553 19.0059 36.3929 17.3282C36.2049 16.6292 36.197 15.1379 36.3851 14.4622C36.6045 13.6544 36.9807 12.9864 37.4979 12.4738C38.4618 11.5107 39.6843 11.169 41.087 11.4641ZM11.6373 14.066C12.1858 14.3301 12.7031 14.866 13.0165 15.5029C13.2751 16.0233 13.283 16.0777 13.283 16.9398C13.283 17.7787 13.2673 17.8641 13.04 18.3457C12.7031 19.0369 12.3112 19.4486 11.6921 19.7515L11.1671 20.0078L7.89924 20.0311L4.62357 20.0544V16.9398L4.62357 13.8253L7.93843 13.8486L11.2455 13.8719L11.6373 14.066Z" fill="white"/>
</g>
<defs>
<clipPath id="clip0_45_790">
<rect width="70" height="24" fill="white"/>
</clipPath>
</defs>
</svg>
